<mxfile host="app.diagrams.net" modified="2021-01-20T02:30:10.618Z" agent="5.0 (Macintosh; Intel Mac OS X 10_15_5) AppleWebKit/537.36 (KHTML, like Gecko) Chrome/81.0.4044.138 Safari/537.36" etag="x-GyRhwDPB89SbhTrONj" version="14.2.5" type="github">
  <diagram id="C5RBs43oDa-KdzZeNtuy" name="Page-1">
    <mxGraphModel dx="877" dy="511" grid="1" gridSize="10" guides="1" tooltips="1" connect="1" arrows="1" fold="1" page="1" pageScale="1" pageWidth="827" pageHeight="1169" math="0" shadow="0">
      <root>
        <mxCell id="WIyWlLk6GJQsqaUBKTNV-0" />
        <mxCell id="WIyWlLk6GJQsqaUBKTNV-1" parent="WIyWlLk6GJQsqaUBKTNV-0" />
        <mxCell id="jUqd8RzEbhDObsrwQc3A-8" style="edgeStyle=orthogonalEdgeStyle;rounded=0;orthogonalLoop=1;jettySize=auto;html=1;exitX=0.5;exitY=1;exitDx=0;exitDy=0;entryX=0.5;entryY=0;entryDx=0;entryDy=0;" edge="1" parent="WIyWlLk6GJQsqaUBKTNV-1" source="WIyWlLk6GJQsqaUBKTNV-3" target="jUqd8RzEbhDObsrwQc3A-3">
          <mxGeometry relative="1" as="geometry" />
        </mxCell>
        <mxCell id="jUqd8RzEbhDObsrwQc3A-16" style="edgeStyle=orthogonalEdgeStyle;rounded=0;orthogonalLoop=1;jettySize=auto;html=1;exitX=1;exitY=0.5;exitDx=0;exitDy=0;entryX=0;entryY=0.5;entryDx=0;entryDy=0;" edge="1" parent="WIyWlLk6GJQsqaUBKTNV-1" source="WIyWlLk6GJQsqaUBKTNV-3" target="jUqd8RzEbhDObsrwQc3A-1">
          <mxGeometry relative="1" as="geometry" />
        </mxCell>
        <mxCell id="WIyWlLk6GJQsqaUBKTNV-3" value="&lt;div style=&quot;text-align: justify&quot;&gt;&lt;font style=&quot;font-size: 18px&quot;&gt;线索录入&lt;/font&gt;&lt;/div&gt;&lt;div style=&quot;text-align: justify&quot;&gt;&lt;br&gt;&lt;/div&gt;" style="rounded=1;whiteSpace=wrap;html=1;fontSize=12;glass=0;strokeWidth=1;shadow=0;align=center;" parent="WIyWlLk6GJQsqaUBKTNV-1" vertex="1">
          <mxGeometry x="160" y="60" width="160" height="60" as="geometry" />
        </mxCell>
        <mxCell id="jUqd8RzEbhDObsrwQc3A-17" style="edgeStyle=orthogonalEdgeStyle;rounded=0;orthogonalLoop=1;jettySize=auto;html=1;exitX=1;exitY=0.5;exitDx=0;exitDy=0;entryX=0;entryY=0.5;entryDx=0;entryDy=0;entryPerimeter=0;" edge="1" parent="WIyWlLk6GJQsqaUBKTNV-1" source="jUqd8RzEbhDObsrwQc3A-1" target="jUqd8RzEbhDObsrwQc3A-2">
          <mxGeometry relative="1" as="geometry" />
        </mxCell>
        <mxCell id="jUqd8RzEbhDObsrwQc3A-1" value="&lt;font style=&quot;font-size: 18px&quot;&gt;满足线索录入规则&lt;/font&gt;" style="rhombus;whiteSpace=wrap;html=1;" vertex="1" parent="WIyWlLk6GJQsqaUBKTNV-1">
          <mxGeometry x="370" y="37.5" width="160" height="105" as="geometry" />
        </mxCell>
        <mxCell id="jUqd8RzEbhDObsrwQc3A-2" value="&lt;font style=&quot;font-size: 18px&quot;&gt;销售库&lt;/font&gt;" style="shape=cylinder3;whiteSpace=wrap;html=1;boundedLbl=1;backgroundOutline=1;size=15;" vertex="1" parent="WIyWlLk6GJQsqaUBKTNV-1">
          <mxGeometry x="620" y="50" width="60" height="80" as="geometry" />
        </mxCell>
        <mxCell id="jUqd8RzEbhDObsrwQc3A-11" value="通过" style="edgeStyle=orthogonalEdgeStyle;rounded=0;orthogonalLoop=1;jettySize=auto;html=1;entryX=0.5;entryY=0;entryDx=0;entryDy=0;entryPerimeter=0;" edge="1" parent="WIyWlLk6GJQsqaUBKTNV-1" source="jUqd8RzEbhDObsrwQc3A-3" target="jUqd8RzEbhDObsrwQc3A-4">
          <mxGeometry relative="1" as="geometry" />
        </mxCell>
        <mxCell id="jUqd8RzEbhDObsrwQc3A-13" style="edgeStyle=orthogonalEdgeStyle;rounded=0;orthogonalLoop=1;jettySize=auto;html=1;entryX=0.5;entryY=0;entryDx=0;entryDy=0;entryPerimeter=0;exitX=0.5;exitY=1;exitDx=0;exitDy=0;" edge="1" parent="WIyWlLk6GJQsqaUBKTNV-1" source="jUqd8RzEbhDObsrwQc3A-3" target="jUqd8RzEbhDObsrwQc3A-5">
          <mxGeometry relative="1" as="geometry">
            <Array as="points">
              <mxPoint x="90" y="280" />
            </Array>
          </mxGeometry>
        </mxCell>
        <mxCell id="jUqd8RzEbhDObsrwQc3A-15" value="通过" style="edgeLabel;html=1;align=center;verticalAlign=middle;resizable=0;points=[];" vertex="1" connectable="0" parent="jUqd8RzEbhDObsrwQc3A-13">
          <mxGeometry x="-0.1833" y="3" relative="1" as="geometry">
            <mxPoint as="offset" />
          </mxGeometry>
        </mxCell>
        <mxCell id="jUqd8RzEbhDObsrwQc3A-19" style="edgeStyle=orthogonalEdgeStyle;rounded=0;orthogonalLoop=1;jettySize=auto;html=1;entryX=1;entryY=0.5;entryDx=0;entryDy=0;" edge="1" parent="WIyWlLk6GJQsqaUBKTNV-1" source="jUqd8RzEbhDObsrwQc3A-3" target="jUqd8RzEbhDObsrwQc3A-18">
          <mxGeometry relative="1" as="geometry" />
        </mxCell>
        <mxCell id="jUqd8RzEbhDObsrwQc3A-3" value="&lt;font style=&quot;font-size: 18px&quot;&gt;满足线索录入规则&lt;/font&gt;" style="rhombus;whiteSpace=wrap;html=1;" vertex="1" parent="WIyWlLk6GJQsqaUBKTNV-1">
          <mxGeometry x="160" y="180" width="160" height="100" as="geometry" />
        </mxCell>
        <mxCell id="jUqd8RzEbhDObsrwQc3A-4" value="&lt;font style=&quot;font-size: 18px&quot;&gt;公共库&lt;/font&gt;" style="shape=cylinder3;whiteSpace=wrap;html=1;boundedLbl=1;backgroundOutline=1;size=15;" vertex="1" parent="WIyWlLk6GJQsqaUBKTNV-1">
          <mxGeometry x="210" y="370" width="60" height="80" as="geometry" />
        </mxCell>
        <mxCell id="jUqd8RzEbhDObsrwQc3A-5" value="&lt;font style=&quot;font-size: 18px&quot;&gt;临时库&lt;/font&gt;" style="shape=cylinder3;whiteSpace=wrap;html=1;boundedLbl=1;backgroundOutline=1;size=15;" vertex="1" parent="WIyWlLk6GJQsqaUBKTNV-1">
          <mxGeometry x="60" y="370" width="60" height="80" as="geometry" />
        </mxCell>
        <mxCell id="jUqd8RzEbhDObsrwQc3A-6" value="&lt;font style=&quot;font-size: 18px&quot;&gt;废弃库&lt;/font&gt;" style="shape=cylinder3;whiteSpace=wrap;html=1;boundedLbl=1;backgroundOutline=1;size=15;" vertex="1" parent="WIyWlLk6GJQsqaUBKTNV-1">
          <mxGeometry x="370" y="370" width="60" height="80" as="geometry" />
        </mxCell>
        <mxCell id="jUqd8RzEbhDObsrwQc3A-18" value="&lt;font style=&quot;font-size: 18px&quot;&gt;结束&lt;/font&gt;" style="rounded=1;whiteSpace=wrap;html=1;" vertex="1" parent="WIyWlLk6GJQsqaUBKTNV-1">
          <mxGeometry x="20" y="205" width="80" height="50" as="geometry" />
        </mxCell>
      </root>
    </mxGraphModel>
  </diagram>
</mxfile>
